<svg width="12" height="7" viewBox="0 0 12 7" fill="none" xmlns="http://www.w3.org/2000/svg">
<path d="M9.19665 0.136691C9.01441 -0.0455637 8.71895 -0.0455637 8.53668 0.136691L2.94573 5.7277L0.796659 3.57863C0.614422 3.39637 0.318964 3.39639 0.136691 3.57863C-0.0455637 3.76086 -0.0455637 4.05632 0.136691 4.23858L2.61575 6.71759C2.79793 6.89983 3.0936 6.8997 3.27571 6.71759L9.19665 0.796659C9.3789 0.614422 9.37889 0.318946 9.19665 0.136691Z" fill="white"/>
<path d="M11.8634 0.136691C11.6812 -0.0455637 11.3857 -0.0455637 11.2034 0.136691L5.61248 5.7277L3.46341 3.57863C3.28117 3.39637 2.98571 3.39639 2.80344 3.57863C2.62118 3.76086 2.62118 4.05632 2.80344 4.23858L5.28249 6.71759C5.46468 6.89983 5.76035 6.8997 5.94246 6.71759L11.8634 0.796659C12.0457 0.614422 12.0456 0.318946 11.8634 0.136691Z" fill="white"/>
</svg>
