<svg width="24" height="24" viewBox="0 0 24 24" fill="none" xmlns="http://www.w3.org/2000/svg">
<path d="M18.4399 12.6428H10.3901C10.196 12.6428 10.0386 12.8002 10.0386 12.9944C10.0386 13.1885 10.196 13.3459 10.3901 13.3459H18.4399C18.634 13.3459 18.7915 13.1885 18.7915 12.9944C18.7915 12.8002 18.634 12.6428 18.4399 12.6428Z" fill="white"/>
<path d="M18.4399 14.1581H10.3901C10.196 14.1581 10.0386 14.3155 10.0386 14.5096C10.0386 14.7038 10.196 14.8612 10.3901 14.8612H18.4399C18.634 14.8612 18.7915 14.7038 18.7915 14.5096C18.7915 14.3155 18.634 14.1581 18.4399 14.1581Z" fill="white"/>
<path d="M18.4399 15.6733H10.3901C10.196 15.6733 10.0386 15.8307 10.0386 16.0249C10.0386 16.2191 10.196 16.3765 10.3901 16.3765H18.4399C18.634 16.3765 18.7915 16.2191 18.7915 16.0249C18.7915 15.8307 18.634 15.6733 18.4399 15.6733Z" fill="white"/>
<path d="M18.4399 17.1885H10.3901C10.196 17.1885 10.0386 17.3459 10.0386 17.54C10.0386 17.7342 10.196 17.8916 10.3901 17.8916H18.4399C18.634 17.8916 18.7915 17.7342 18.7915 17.54C18.7915 17.3459 18.634 17.1885 18.4399 17.1885Z" fill="white"/>
<path d="M18.4399 18.7037H10.3901C10.196 18.7037 10.0386 18.8611 10.0386 19.0553C10.0386 19.2495 10.196 19.4069 10.3901 19.4069H18.4399C18.634 19.4069 18.7915 19.2495 18.7915 19.0553C18.7915 18.8611 18.634 18.7037 18.4399 18.7037Z" fill="white"/>
<path d="M18.4399 20.2191H10.3901C10.196 20.2191 10.0386 20.3765 10.0386 20.5707C10.0386 20.7648 10.196 20.9222 10.3901 20.9222H18.4399C18.634 20.9222 18.7915 20.7648 18.7915 20.5707C18.7915 20.3765 18.634 20.2191 18.4399 20.2191Z" fill="white"/>
<path d="M1.8667 22.4374H18.4397C18.6338 22.4374 18.7912 22.28 18.7912 22.0858C18.7912 21.8917 18.6338 21.7343 18.4397 21.7343H1.8667C1.67254 21.7343 1.51514 21.8917 1.51514 22.0858C1.51514 22.28 1.67254 22.4374 1.8667 22.4374Z" fill="white"/>
<path d="M1.51514 20.5706C1.51514 20.7648 1.67254 20.9222 1.8667 20.9222H8.4959C8.69006 20.9222 8.84746 20.7648 8.84746 20.5706V12.9944C8.84746 12.8002 8.69006 12.6428 8.4959 12.6428H1.8667C1.67254 12.6428 1.51514 12.8002 1.51514 12.9944V20.5706ZM2.21826 13.3459H8.14434V20.219H2.21826V13.3459Z" fill="white"/>
<path d="M18.7912 4.75513C18.7912 4.56097 18.6338 4.40356 18.4397 4.40356H1.8667C1.67254 4.40356 1.51514 4.56097 1.51514 4.75513V11.1002C1.51514 11.2944 1.67254 11.4518 1.8667 11.4518H18.4397C18.6338 11.4518 18.7912 11.2944 18.7912 11.1002V4.75513ZM18.0881 10.7487H2.21826V5.10669H18.0881V10.7487Z" fill="white"/>
<path d="M3.2542 9.93657C3.44835 9.93657 3.60576 9.77917 3.60576 9.58501V7.40434L5.20195 9.71574C5.30774 9.8686 5.48329 9.93385 5.64899 9.88206C5.81873 9.82904 5.92842 9.66859 5.92837 9.46989L5.89738 6.26701C5.89551 6.07398 5.73848 5.91882 5.54592 5.91882C5.54479 5.91882 5.54362 5.91882 5.54245 5.91882C5.34829 5.9207 5.19243 6.0796 5.19431 6.27376L5.21582 8.49849L3.54342 6.07675C3.45599 5.95014 3.29643 5.8951 3.14953 5.9409C3.00262 5.9867 2.90259 6.12268 2.90259 6.27653V9.58496C2.90263 9.77917 3.06004 9.93657 3.2542 9.93657Z" fill="white"/>
<path d="M7.06348 9.93665H8.46012C8.65427 9.93665 8.81168 9.77924 8.81168 9.58508C8.81168 9.39093 8.65427 9.23352 8.46012 9.23352H7.41504V8.27933H8.35713C8.55129 8.27933 8.7087 8.12193 8.7087 7.92777C8.7087 7.73362 8.55129 7.57621 8.35713 7.57621H7.41504V6.62207H8.46012C8.65427 6.62207 8.81168 6.46466 8.81168 6.27051C8.81168 6.07635 8.65427 5.91895 8.46012 5.91895H7.06348C6.86932 5.91895 6.71191 6.07635 6.71191 6.27051V9.58508C6.71191 9.77924 6.86932 9.93665 7.06348 9.93665Z" fill="white"/>
<path d="M16.055 9.93657C16.7231 9.93657 17.2837 9.51259 17.388 8.92843C17.466 8.49128 17.2644 7.91907 16.4645 7.624C16.0473 7.47011 15.6596 7.30229 15.5515 7.25486C15.4658 7.18942 15.4245 7.08681 15.4404 6.97586C15.4506 6.90545 15.5008 6.73365 15.7481 6.65912C16.2493 6.50828 16.707 6.8725 16.7181 6.88154C16.8668 7.00515 17.0874 6.98556 17.2119 6.83739C17.3369 6.68879 17.3176 6.46703 17.169 6.34206C17.1388 6.31665 16.4186 5.72284 15.5452 5.9859C15.1113 6.11664 14.8044 6.45765 14.7444 6.87596C14.6883 7.26695 14.8577 7.64298 15.1865 7.85734C15.202 7.86746 15.2183 7.87637 15.2353 7.88387C15.2544 7.8924 15.709 8.09476 16.2211 8.28367C16.5596 8.40854 16.7326 8.59848 16.6958 8.80482C16.6581 9.01553 16.4082 9.23345 16.055 9.23345C15.7081 9.23345 15.3737 9.09292 15.1604 8.85756C15.03 8.7137 14.8077 8.70273 14.6638 8.83314C14.52 8.96354 14.509 9.18582 14.6394 9.32973C14.9838 9.70975 15.513 9.93657 16.055 9.93657Z" fill="white"/>
<path d="M10.2763 9.6035C10.2797 9.62028 10.2842 9.63678 10.2899 9.6529C10.3503 9.82287 10.5115 9.93659 10.6917 9.93659H10.6945C10.8759 9.93537 11.037 9.81922 11.0954 9.64751C11.0964 9.64447 11.0974 9.64137 11.0984 9.63828L11.771 7.46506L12.4407 9.63879C12.4421 9.64357 12.4437 9.64836 12.4454 9.65304C12.5058 9.82297 12.667 9.93659 12.8472 9.93659H12.8501C13.0314 9.93537 13.1925 9.81917 13.2508 9.64751C13.2558 9.63293 13.2598 9.61803 13.2628 9.60293L13.9112 6.34517C13.949 6.15476 13.8254 5.96965 13.635 5.93173C13.4446 5.89395 13.2595 6.01747 13.2215 6.20792L12.789 8.38123L12.1068 6.16695L12.1048 6.16756C12.0706 6.06289 11.9881 5.97575 11.8748 5.94068C11.6893 5.88336 11.4925 5.98709 11.435 6.17257L10.7513 8.38146L10.3203 6.20225C10.2826 6.01175 10.0974 5.88786 9.90719 5.92559C9.71673 5.96328 9.59284 6.14825 9.63053 6.33865L10.2763 9.6035Z" fill="white"/>
<path d="M22.7713 0.00084375C22.7633 0.000515625 22.7326 0 22.725 0H16.2464C16.0522 0 15.8948 0.157406 15.8948 0.351562C15.8948 0.545719 16.0522 0.703125 16.2464 0.703125H21.5856C21.4989 0.875203 21.45 1.0695 21.45 1.275V9.25781C21.45 9.45197 21.6074 9.60938 21.8016 9.60938C21.9957 9.60938 22.1531 9.45197 22.1531 9.25781V1.275C22.1507 0.965906 22.4177 0.698812 22.7357 0.702563C23.0319 0.706359 23.2966 0.977625 23.2969 1.29703V21.8719C23.2969 22.6576 22.6261 23.2969 21.8018 23.2969C21.8017 23.2969 21.8017 23.2969 21.8017 23.2969C21.8016 23.2969 21.8016 23.2969 21.8016 23.2969C20.9773 23.2969 20.3067 22.6576 20.3067 21.8719V19.2173H20.8547C21.5707 19.2173 22.1531 18.6349 22.1531 17.9189V10.8984C22.1531 10.7043 21.9957 10.5469 21.8016 10.5469C21.6074 10.5469 21.45 10.7043 21.45 10.8984V17.9189C21.45 18.2472 21.183 18.5142 20.8547 18.5142H20.3067V4.23422C20.3067 3.51825 19.724 2.93578 19.0078 2.93578H2.64469V1.275C2.64469 0.959672 2.901 0.703125 3.21609 0.703125H14.6058C14.7999 0.703125 14.9573 0.545719 14.9573 0.351562C14.9573 0.157406 14.7999 0 14.6058 0H3.21609C2.5133 0 1.94156 0.571969 1.94156 1.275V2.93578H1.29844C0.582469 2.93578 0 3.51825 0 4.23422V14.6002C0 14.7943 0.157406 14.9517 0.351562 14.9517C0.545719 14.9517 0.703125 14.7943 0.703125 14.6002V4.23422C0.703125 3.90595 0.970172 3.63891 1.29844 3.63891H19.0078C19.3363 3.63891 19.6036 3.90595 19.6036 4.23422V21.8719C19.6036 22.4194 19.8183 22.9193 20.1705 23.2969H2.19844C1.37391 23.2969 0.703125 22.6576 0.703125 21.8719V16.2408C0.703125 16.0466 0.545719 15.8892 0.351562 15.8892C0.157406 15.8892 0 16.0466 0 16.2408V21.8719C0 23.0453 0.986203 24 2.19844 24H21.8016H21.8017C21.8017 24 21.8017 24 21.8018 24C23.0138 24 24 23.0453 24 21.8719V1.29703C24 0.594703 23.4602 0.0253125 22.7713 0.00084375Z" fill="white"/>
</svg>
